<?xml version="1.0" encoding="UTF-8"?>
<svg width="48px" height="48px" viewBox="0 0 48 48" version="1.1" xmlns="http://www.w3.org/2000/svg" xmlns:xlink="http://www.w3.org/1999/xlink">
    <title>编组 2备份</title>
    <defs>
        <polygon id="path-1" points="0 0 26.7755102 0 26.7755102 26.7755102 0 26.7755102"></polygon>
    </defs>
    <g id="页面-1" stroke="none" stroke-width="1" fill="none" fill-rule="evenodd">
        <g id="编组-2备份">
            <circle id="椭圆形" fill="#F3E8FF" cx="24" cy="24" r="24"></circle>
            <g id="编组" transform="translate(11.000000, 11.000000)">
                <g>
                    <mask id="mask-2" fill="white">
                        <use xlink:href="#path-1"></use>
                    </mask>
                    <g id="Clip-2"></g>
                    <path d="M22.5912997,1.91203115 C21.3368958,1.87565001 20.2902114,2.86299379 20.2538226,4.11713261 C20.2169284,5.37177673 21.2044809,6.41773457 22.4588848,6.45462101 C23.7137942,6.49100215 24.7604785,5.50365837 24.7968674,4.24951955 C24.8332562,2.99487543 23.8457037,1.94841229 22.5912997,1.91203115 L22.5912997,1.91203115 Z M22.5912997,0 C24.9019907,0 26.7755102,1.87261825 26.7755102,4.18332608 C26.7755102,6.49352862 24.9019907,8.36665216 22.5912997,8.36665216 C20.2806088,8.36665216 18.4070893,6.49352862 18.4070893,4.18332608 C18.4070893,1.87261825 20.2806088,0 22.5912997,0 L22.5912997,0 Z M19.2435271,16.9738241 C18.4222513,16.9339059 17.6429238,17.3411726 17.2072686,18.0384778 C16.771108,18.7352777 16.745838,19.6134781 17.1405557,20.3345321 C17.5357789,21.0560914 18.2898364,21.5073187 19.1121229,21.5148981 C20.3498487,21.5270251 21.3697468,20.5457449 21.4056303,19.308786 C21.4415137,18.0718272 20.480242,17.0334487 19.2435271,16.9738241 L19.2435271,16.9738241 Z M19.2435271,15.0607824 C21.554218,15.0607824 23.4277375,16.9339059 23.4277375,19.2441084 C23.4277375,21.5548163 21.554218,23.4274345 19.2435271,23.4274345 C16.9328361,23.4274345 15.0593166,21.5548163 15.0593166,19.2441084 C15.0593166,16.9339059 16.9328361,15.0607824 19.2435271,15.0607824 L19.2435271,15.0607824 Z M7.52733346,5.25909625 C6.2724241,5.22271511 5.22573974,6.21005889 5.1888455,7.46470301 C5.15296207,8.71934712 6.14051458,9.76581026 7.39542394,9.8021914 C8.64982789,9.83907784 9.69701766,8.85122876 9.73340649,7.59658465 C9.76979533,6.34244582 8.78224282,5.29547739 7.52733346,5.25909625 L7.52733346,5.25909625 Z M7.52733346,3.34605451 C9.83903519,3.29704103 11.7524814,5.13024637 11.8015052,7.4414595 C11.8510344,9.75216733 10.0169362,11.6652091 7.70523442,11.7142226 C5.41728651,11.7303919 3.53972378,9.9057766 3.49120534,7.61831227 C3.44268689,5.33135324 5.24039635,3.42841738 7.52733346,3.3470651 L7.52733346,3.34605451 Z M4.17956077,20.3198786 C2.92465142,20.2829922 1.87796705,21.270336 1.84107282,22.5249801 C1.80417858,23.7796242 2.79173109,24.8260873 4.04664045,24.8629738 C5.30154981,24.8993549 6.34823417,23.9120111 6.38462301,22.657367 C6.42101184,21.4032282 5.43345933,20.3562597 4.17854997,20.3198786 L4.17956077,20.3198786 Z M4.17956077,18.4078475 C6.4907571,18.4078475 8.36427663,20.280971 8.36427663,22.5916788 C8.36427663,24.9023867 6.4907571,26.7755102 4.17956077,26.7755102 C1.86886984,26.7755102 -0.00515508475,24.9023867 -0.00515508475,22.5916788 C-0.00515508475,20.280971 1.86886984,18.4078475 4.17956077,18.4078475 L4.17956077,18.4078475 Z" id="Fill-1" fill="#A855F7" mask="url(#mask-2)"></path>
                </g>
                <path d="M5.73799987,10.4722551 L7.63376979,10.8418002 L5.81618122,20.244898 L3.91836735,19.8743249 L5.73799987,10.4722551 Z M10.7538698,9.63808035 L17.4938173,16.4425412 L16.1228333,17.8153575 L9.3828858,11.0108966 L10.7538698,9.63808035 Z M21.6343627,6.53061224 L23.5102041,7.00397945 L20.9286867,17.3903035 L19.0538673,16.9169363 L21.6343627,6.53061224 Z" id="Fill-3" fill="#A855F7"></path>
            </g>
        </g>
    </g>
</svg>