<?xml version="1.0" encoding="UTF-8"?>
<svg width="48px" height="48px" viewBox="0 0 48 48" version="1.1" xmlns="http://www.w3.org/2000/svg" xmlns:xlink="http://www.w3.org/1999/xlink">
    <title>编组 2备份 2</title>
    <defs>
        <polygon id="path-1" points="0 0 19 0 19 27 0 27"></polygon>
    </defs>
    <g id="页面-1" stroke="none" stroke-width="1" fill="none" fill-rule="evenodd">
        <g id="编组-2备份-2">
            <circle id="椭圆形" fill="#DCFCE6" cx="24" cy="24" r="24"></circle>
            <g id="编组" transform="translate(15.000000, 11.000000)">
                <mask id="mask-2" fill="white">
                    <use xlink:href="#path-1"></use>
                </mask>
                <g id="Clip-2"></g>
                <path d="M10.200552,10.2094438 C9.776003,10.7158106 9.69099796,11.3061775 9.94577498,11.728071 C10.200552,12.1502011 10.625101,12.4873846 11.304427,12.4873846 L15.1251299,12.4873846 L2.21936417,24.1312189 L7.65325801,16.0312426 C7.82326809,15.5248758 7.82326809,14.9345088 7.48348603,14.5126154 C7.22870901,14.0907219 6.71939307,13.8375385 6.1250721,13.8375385 L1.87982022,13.8375385 L8.41735096,2.19370415 C8.58736105,1.85628401 9.09667698,1.51862725 9.52122598,1.51862725 L17.1628698,1.51862725 L10.200552,10.2094438 Z M18.8610658,0.759313627 C18.6062888,0.253183416 18.1817398,0 17.5026519,0 L9.351454,0 C8.41735096,0 7.31371405,0.590840176 6.88916505,1.43439053 L0.266391158,13.2469349 C-0.0731527974,13.7533017 -0.0731527974,14.3436687 0.181624224,14.7655621 C0.436401245,15.1876923 0.945717178,15.440639 1.54003815,15.440639 L5.95530012,15.440639 L5.95530012,15.5248758 L0.181624224,25.3126627 C0.0966191802,25.5656095 -0.0731527974,26.0719763 0.266391158,26.5781065 C0.436401245,26.8312899 0.690940157,27 1.03072222,27 C1.37026618,27 1.6250432,26.8312899 1.96458715,26.5781065 L16.9080928,13.0782248 C17.5871807,12.4873846 17.5026519,11.8970177 17.4176469,11.6438343 C17.3326418,11.3906509 17.0778648,10.884284 16.0589948,10.884284 L11.7287379,10.884284 L18.5212838,2.2781775 C19.0305997,1.77204729 19.1156048,1.18120711 18.8610658,0.759313627 L18.8610658,0.759313627 Z" id="Fill-1" stroke="#22C55D" stroke-width="0.3" fill="#22C55D" mask="url(#mask-2)"></path>
            </g>
        </g>
    </g>
</svg>