<?xml version="1.0" encoding="UTF-8"?>
<svg width="48px" height="48px" viewBox="0 0 48 48" version="1.1" xmlns="http://www.w3.org/2000/svg" xmlns:xlink="http://www.w3.org/1999/xlink">
    <title>编组 3</title>
    <defs>
        <polygon id="path-1" points="0 0 27 0 27 27 0 27"></polygon>
    </defs>
    <g id="页面-1" stroke="none" stroke-width="1" fill="none" fill-rule="evenodd">
        <g id="编组-3">
            <g id="编组-2备份-3" fill="#FEE2E1">
                <circle id="椭圆形" cx="24" cy="24" r="24"></circle>
            </g>
            <g id="编组" transform="translate(11.000000, 11.000000)">
                <g>
                    <mask id="mask-2" fill="white">
                        <use xlink:href="#path-1"></use>
                    </mask>
                    <g id="Clip-2"></g>
                    <path d="M22.967459,22.82637 C21.8210781,23.9994457 20.2862303,24.6455253 18.6505194,24.6455253 C16.9410343,24.6455253 15.3597895,23.9435433 14.1935242,22.6691447 C13.9327211,22.4041909 13.7142805,22.0935253 13.5033326,21.7933413 L13.5001626,21.788974 C12.8756761,20.7894285 12.5454215,19.6312019 12.548,18.4496826 L12.548,18.4063001 C12.548,18.0539989 12.5915304,17.6996595 12.6338929,17.3563842 C12.6774081,17.0454275 12.7650149,16.7344707 12.8497398,16.4337045 L12.8511808,16.4287548 C13.5923803,14.205181 15.5228995,12.6026472 17.8257476,12.2986782 C18.0888561,12.254131 18.3519647,12.254131 18.6072923,12.254131 L18.8240039,12.254131 C20.3997733,12.3181858 21.8761205,12.991052 22.9838853,14.1489875 C24.0919382,15.3008086 24.7109493,16.8442373 24.7095084,18.4499738 C24.7302573,20.1008398 24.1112462,21.6556236 22.967459,22.82637 L22.967459,22.82637 Z M12.5730868,22.310438 C11.8203601,22.3998235 11.0630225,22.443206 10.3053967,22.4405856 C8.13712881,22.4405856 6.10834011,22.1255526 4.59135946,21.5525537 C3.15362837,21.0098351 2.3288566,20.2883455 2.3288566,19.5723879 L2.3288566,17.2457442 L2.49081388,17.3764741 C3.96197387,18.5626519 6.9561663,19.3007375 10.3045322,19.3007375 C10.6440085,19.3007375 10.9367996,19.3007375 11.2710886,19.2585196 L11.3664763,19.246291 L11.382038,19.3417908 C11.5105664,20.1235501 11.7638768,20.8389253 12.1356293,21.4678267 L12.1390874,21.4748145 C12.2520541,21.7036647 12.4039251,21.9089311 12.6312992,22.140984 L12.7759657,22.2888923 L12.5730868,22.310438 Z M12.9024768,13.7853311 L12.768473,13.9702164 C12.1704991,14.7939025 11.7558078,15.7384191 11.5526407,16.7391292 C11.540249,16.8133745 11.5246872,16.8908226 11.5088373,16.9717645 C11.4684921,17.17179 11.426706,17.3790946 11.426706,17.5852344 L11.426706,17.6859751 L11.3269956,17.6859751 C11.1806001,17.6859751 11.0209482,17.696748 10.8653309,17.7072297 C10.7097136,17.7180025 10.5428572,17.7293577 10.3904099,17.7293577 C8.24663729,17.7293577 6.22908762,17.3499788 4.70893699,16.66139 C3.27812223,16.0132723 2.45767316,15.1683317 2.45767316,14.3423164 L2.41098796,11.5052726 L2.58447245,11.6761824 C3.28849671,12.3703031 4.36917252,12.950581 5.70978687,13.3538349 C7.07489654,13.7643677 8.67861943,13.9818628 10.3492001,13.9818628 C11.1520702,13.9818628 11.9284277,13.8942242 12.678849,13.809206 L12.9024768,13.7853311 Z M2.32972114,6.33343266 L2.49657749,6.48774641 C3.14671205,7.08753194 4.25188317,7.58395636 5.69278424,7.9228643 C7.03800948,8.23935307 8.6034044,8.40676894 10.2200954,8.40676894 C11.8364982,8.40676894 13.4021813,8.23935307 14.7471184,7.9228643 C16.1877313,7.58395636 17.2934787,7.08753194 17.9430369,6.48774641 L18.1101815,6.33343266 L18.1101815,8.80973164 C18.1101815,9.63603811 17.2972251,10.4809787 15.8805312,11.1288053 C14.3719077,11.8176852 12.3615626,12.1967729 10.2200954,12.1967729 C8.07834005,12.1967729 6.06885942,11.8176852 4.55937146,11.1288053 C3.14325389,10.4821433 2.32972114,9.63720274 2.32972114,8.80973164 L2.32972114,6.33343266 Z M4.62968743,3.07217165 C6.12419002,2.60952155 8.12358434,2.35446712 10.2627461,2.35446712 C14.8373188,2.35446712 18.0254565,3.50104741 18.0254565,4.53029102 C18.0254565,5.03719714 17.249099,5.56885169 15.8952283,5.98811924 C14.4015903,6.45193397 12.4016196,6.70582377 10.2627461,6.70582377 C5.68817336,6.70582377 2.50032375,5.55924348 2.50032375,4.53029102 C2.50003565,4.02309375 3.27639315,3.4914392 4.62968743,3.07217165 L4.62968743,3.07217165 Z M24.0988545,13.4109019 C22.8729359,12.0369272 21.1856407,11.172479 19.3643418,10.9849732 L18.4364015,10.918298 L19.0620407,10.1732247 C19.2727005,9.78249059 19.319962,9.35652641 19.369529,8.90610494 L19.3761572,8.84699987 L19.4006525,6.12903973 C19.4006525,5.74733156 19.3124693,5.41570257 19.1147777,5.05466662 L19.110455,5.0465142 L19.0533953,4.87385749 L19.0669398,4.839792 C19.1539702,4.61938538 19.1876873,4.45983078 19.1876873,4.27232502 C19.1876873,3.77619175 18.9306305,3.31208586 18.4240097,2.89340062 C17.9441897,2.49684339 17.2519808,2.14745377 16.3669794,1.85542227 C14.7229112,1.31124793 12.4823101,1 10.2200954,1 C7.95759254,1 5.71727956,1.31124793 4.07321144,1.85396648 C3.18763364,2.14599798 2.49571295,2.4953876 2.01589289,2.89165367 C1.50927207,3.31121238 1.25221532,3.7744448 1.25221532,4.27086923 C1.25221532,4.4784649 1.29400145,4.67761698 1.36950467,4.83105726 L1.38708366,4.86832549 L1.32915944,5.04564072 L1.32454856,5.05379315 C1.12714511,5.41570257 1.03896196,5.7470404 1.03896196,6.12962204 L1.03896196,8.85311418 C1.03896196,9.30062407 1.19803744,9.75453942 1.48621766,10.1312979 L1.52771561,10.1854533 L1.36604651,10.459433 C1.14645318,10.8623957 1.03867378,11.227799 1.03867378,11.576024 L1.03867378,14.2995162 C1.03867378,14.7033523 1.1695076,15.113594 1.45019513,15.5881816 L1.48477676,15.646122 L1.32109039,15.8682756 C1.10120889,16.2692002 0.996311293,16.6331477 0.996311293,16.9804992 L0.996311293,19.7031179 C0.996311293,20.8325199 1.93203245,21.8900058 3.63085481,22.680791 C5.35417249,23.4835137 7.67892227,23.9252004 10.1771565,23.9252004 C11.2238271,23.9252004 13.2220687,23.6972236 13.2419531,23.6951855 L13.2909438,23.6893624 L13.3252372,23.7251748 C13.998138,24.4309419 14.8021608,24.9952061 15.6914849,25.3862313 C16.6104916,25.7923968 17.6032725,26.0014482 18.6064278,26 C22.6830251,26 25.999403,22.6321676 25.999403,18.492774 C26.0230338,16.617134 25.3443694,14.8020549 24.0988545,13.4109019 L24.0988545,13.4109019 Z" id="Fill-1" stroke="#EF4444" stroke-width="0.3" fill="#EF4444" mask="url(#mask-2)"></path>
                </g>
                <path d="M21.759923,17.9237065 C21.632757,17.8329411 21.4725456,17.7938811 21.3152846,17.8152376 C21.1574335,17.8365942 21.0155151,17.9166813 20.9199193,18.0380765 L19.5998713,19.7142857 L19.5998713,14.5712881 C19.5998713,14.2557167 19.331377,14 19.0000373,14 C18.6684025,14 18.3999082,14.2557167 18.3999082,14.5712881 L18.3999082,19.7142857 L17.0801553,18.0380765 C16.8812924,17.7854508 16.5051053,17.7343075 16.2401516,17.9237065 C15.9749028,18.1131055 15.9212039,18.4713899 16.1200667,18.7237346 L18.519993,21.771541 C18.6332917,21.9154168 18.8112061,22 19.0000373,22 C19.1888685,22 19.3667829,21.9154168 19.4800816,21.771541 L21.8800078,18.7237346 C21.9753086,18.6026204 22.0166154,18.4503144 21.9938967,18.2999754 C21.971473,18.1501985 21.8873841,18.0147529 21.759923,17.9237065" id="Fill-3" stroke="#EF4444" stroke-width="0.3" fill="#EF4444"></path>
            </g>
        </g>
    </g>
</svg>