<?xml version="1.0" encoding="UTF-8"?>
<svg width="48px" height="48px" viewBox="0 0 48 48" version="1.1" xmlns="http://www.w3.org/2000/svg" xmlns:xlink="http://www.w3.org/1999/xlink">
    <title>编组 2</title>
    <defs>
        <polygon id="path-1" points="0 0 27 0 27 31 0 31"></polygon>
    </defs>
    <g id="页面-1" stroke="none" stroke-width="1" fill="none" fill-rule="evenodd">
        <g id="编组-2">
            <circle id="椭圆形" fill="#DBE9FE" cx="24" cy="24" r="24"></circle>
            <g id="编组" transform="translate(11.000000, 9.000000)">
                <mask id="mask-2" fill="white">
                    <use xlink:href="#path-1"></use>
                </mask>
                <g id="Clip-2"></g>
                <path d="M12.7036235,20.0338558 C12.6009461,20.136084 12.4694688,20.2039602 12.3263047,20.2292068 L12.2432445,20.238726 L12.1593495,20.238726 C11.9852987,20.2292068 11.8212651,20.1559502 11.6981357,20.0338558 L7.67952325,16.0481988 C7.40196018,15.773383 7.40196018,15.3272211 7.67952325,15.0519914 L8.68417635,14.0557841 C8.96173943,13.7809683 9.41126639,13.7809683 9.68882946,14.0557841 L12.2006709,16.5465094 L17.7277238,11.0663344 C18.0052869,10.7911047 18.4548139,10.7911047 18.7323769,11.0663344 L19.7370301,12.0625417 C19.8705942,12.1949831 19.9453067,12.3741928 19.9453067,12.5608523 C19.9453067,12.7479257 19.8705942,12.9275493 19.7370301,13.0595768 L12.7036235,20.0338558 Z M13.5,2.90256651 L2.84241281,6.63286005 L2.84241281,17.61349 C2.84241281,21.0329603 5.94068452,24.3708963 12.3822347,27.514723 L13.0492209,27.8338239 L13.5,28.042419 L13.9511965,27.8338239 L14.6186,27.514723 L15.2622125,27.1943804 C21.1624103,24.197067 24.0569967,21.0288215 24.1550829,17.784836 L24.1580046,17.61349 L24.1580046,6.63286005 L13.5,2.90256651 Z M13.8568668,0.0451442746 L13.9733181,0.0803240096 L26.0521117,4.30768651 C26.5817771,4.49310441 26.951583,4.97030717 26.9958261,5.52490534 L27,5.63623886 L27,18.1155255 L26.9858088,18.1155255 C26.7266108,22.6512281 22.9367271,26.5979805 15.8411297,30.0584247 L15.152022,30.3882865 C14.8026682,30.5521827 14.4458014,30.715665 14.0805868,30.8770779 C13.7116158,31.040974 13.2888016,31.040974 12.9198306,30.8770779 C12.5608768,30.7173205 12.2035926,30.5546659 11.847978,30.3882865 L11.1588703,30.0584247 C4.06369033,26.5979805 0.273806579,22.6520558 0.0141911947,18.1159394 L0,18.1159394 L0,5.63623886 C0,5.07957129 0.330988746,4.57463862 0.843958694,4.34866056 L0.947888326,4.30768651 L13.0266819,0.0803240096 C13.2938103,-0.0132126975 13.5826428,-0.0252151953 13.8568668,0.0451442746 L13.8568668,0.0451442746 Z" id="Fill-1" fill="#3C82F6" mask="url(#mask-2)"></path>
            </g>
        </g>
    </g>
</svg>